<svg width="38" height="38" viewBox="0 0 38 38" fill="none" xmlns="http://www.w3.org/2000/svg">
<path fill-rule="evenodd" clip-rule="evenodd" d="M19 0C8.80991 0 0.493407 8.02197 0.0211626 18.0953H0V27.0424C0 29.7629 2.20542 31.9683 4.92594 31.9683C7.64646 31.9683 9.85188 29.7629 9.85188 27.0424V23.0212C9.85188 20.3007 7.64646 18.0953 4.92594 18.0953H1.83293C2.30342 9.0218 9.80947 1.80953 19 1.80953C28.1906 1.80953 35.6967 9.0218 36.1672 18.0953H33.0742C30.3536 18.0953 28.1482 20.3007 28.1482 23.0212V27.0424C28.1482 29.7629 30.3536 31.9683 33.0742 31.9683C34.2565 31.9683 35.3416 31.5518 36.1906 30.8574V31.0635C36.1906 33.0021 35.8623 34.2979 35.3372 35.0854C34.8554 35.8082 34.151 36.1905 33.0742 36.1905H22.1165V38H33.0742C34.6781 38 35.9844 37.3769 36.8429 36.0892C37.6582 34.8661 38.0001 33.146 38.0001 31.0635V22.1164L38.0001 19C38.0001 8.50661 29.4935 0 19 0ZM1.80953 27.0424V19.9048H4.92594C6.64708 19.9048 8.04235 21.3001 8.04235 23.0212V27.0424C8.04235 28.7635 6.64708 30.1588 4.92594 30.1588C3.20479 30.1588 1.80953 28.7635 1.80953 27.0424ZM33.0742 19.9048H36.1906V27.0424C36.1906 28.7635 34.7953 30.1588 33.0742 30.1588C31.353 30.1588 29.9577 28.7635 29.9577 27.0424V23.0212C29.9577 21.3001 31.353 19.9048 33.0742 19.9048Z" fill="#DEC377"/>
</svg>
