<svg width="38" height="38" viewBox="0 0 38 38" fill="none" xmlns="http://www.w3.org/2000/svg">
<path d="M12.5132 16.6293H22.9868C23.0689 16.6294 23.1502 16.6133 23.226 16.5819C23.3019 16.5505 23.3708 16.5044 23.4289 16.4464C23.4869 16.3884 23.5329 16.3194 23.5643 16.2436C23.5957 16.1677 23.6119 16.0864 23.6118 16.0043V14.2588C23.6118 12.7041 22.9942 11.2132 21.8949 10.1139C20.7956 9.01456 19.3046 8.39697 17.75 8.39697C16.1953 8.39697 14.7044 9.01456 13.6051 10.1139C12.5058 11.2132 11.8882 12.7041 11.8882 14.2588V16.0043C11.8881 16.0864 11.9043 16.1677 11.9357 16.2436C11.9671 16.3194 12.0131 16.3884 12.0711 16.4464C12.1292 16.5044 12.1981 16.5505 12.2739 16.5819C12.3498 16.6133 12.4311 16.6294 12.5132 16.6293ZM13.1382 14.2588C13.1382 13.0357 13.6241 11.8626 14.489 10.9977C15.3538 10.1329 16.5269 9.64697 17.75 9.64697C18.9731 9.64697 20.1462 10.1329 21.011 10.9977C21.8759 11.8626 22.3618 13.0357 22.3618 14.2588V15.3793H13.1382V14.2588Z" fill="#DEC377"/>
<path d="M31.7562 19.6369V15.4625H34.625C34.7154 15.4624 34.8047 15.4428 34.8868 15.4048C34.9689 15.3669 35.0418 15.3116 35.1004 15.2428C35.1591 15.174 35.2021 15.0933 35.2266 15.0063C35.251 14.9192 35.2563 14.8279 35.2421 14.7386C34.6735 12.1771 33.4754 9.79758 31.7562 7.81533V0.875015C31.7562 0.709255 31.6904 0.550284 31.5732 0.433074C31.456 0.315863 31.297 0.250015 31.1312 0.250015H25.3125C25.1467 0.250015 24.9878 0.315863 24.8706 0.433074C24.7533 0.550284 24.6875 0.709255 24.6875 0.875015V2.43877C22.5151 1.42843 20.2237 0.696718 17.8678 0.261015C17.7897 0.246328 17.7096 0.246328 17.6316 0.261015C2.24769 3.22245 0.275623 14.625 0.257936 14.7398C0.243809 14.829 0.249186 14.9202 0.273697 15.0071C0.298208 15.0941 0.34127 15.1746 0.399918 15.2433C0.458565 15.312 0.531404 15.3672 0.613419 15.405C0.695434 15.4429 0.784676 15.4625 0.874998 15.4625H3.74375V30.5063H2.61875C2.53666 30.5062 2.45536 30.5223 2.37951 30.5537C2.30366 30.5851 2.23474 30.6312 2.1767 30.6892C2.11865 30.7473 2.07261 30.8162 2.04122 30.892C2.00983 30.9679 1.9937 31.0492 1.99375 31.1313V34.625C1.99375 34.7908 2.0596 34.9497 2.17681 35.067C2.29402 35.1842 2.45299 35.25 2.61875 35.25H22.0201C23.0325 36.187 24.2392 36.8888 25.5542 37.3053C26.8692 37.7219 28.26 37.8428 29.6271 37.6596C30.9943 37.4764 32.3041 36.9934 33.463 36.2453C34.6219 35.4972 35.6013 34.5024 36.3312 33.332C37.061 32.1615 37.5234 30.8443 37.6852 29.4744C37.8471 28.1046 37.7044 26.7159 37.2673 25.4076C36.8303 24.0992 36.1097 22.9036 35.157 21.906C34.2043 20.9085 33.0431 20.1337 31.7562 19.6369ZM4.36875 14.2125H1.66787C2.36875 11.779 5.54787 3.90664 17.75 1.51164C20.282 1.98334 22.7314 2.82269 25.0205 4.00308C25.1158 4.05343 25.2225 4.07828 25.3302 4.07523C25.4379 4.07218 25.543 4.04133 25.6353 3.98568C25.7276 3.93002 25.8039 3.85145 25.8568 3.75759C25.9098 3.66374 25.9376 3.55778 25.9375 3.45002V1.50002H30.5062V8.04377C30.5063 8.19235 30.5593 8.33604 30.6557 8.44908C32.1062 10.1266 33.188 12.0902 33.8312 14.2125H31.1312C31.0492 14.2125 30.9679 14.2286 30.892 14.26C30.8162 14.2914 30.7472 14.3374 30.6892 14.3955C30.6311 14.4535 30.5851 14.5224 30.5537 14.5983C30.5223 14.6741 30.5062 14.7554 30.5062 14.8375V19.2443C30.4629 19.2342 30.4182 19.231 30.375 19.2215C30.1157 19.165 29.8544 19.1198 29.5913 19.0859C29.5044 19.0746 29.4178 19.0635 29.3307 19.0546C29.0133 19.0202 28.6943 19.002 28.375 19C26.6635 18.9965 24.9847 19.4685 23.5257 20.3633C23.4734 20.2657 23.3959 20.184 23.3012 20.1267C23.2065 20.0694 23.0981 20.0387 22.9874 20.0376H17.7651C17.7598 20.0376 17.7554 20.0346 17.75 20.0346C17.7446 20.0346 17.7402 20.0375 17.7349 20.0376H12.5125C12.4304 20.0376 12.3491 20.0537 12.2733 20.0851C12.1974 20.1165 12.1285 20.1625 12.0704 20.2206C12.0124 20.2786 11.9664 20.3476 11.935 20.4234C11.9036 20.4993 11.8875 20.5805 11.8875 20.6626V30.5063H4.99375V14.8375C4.9938 14.7554 4.97766 14.6741 4.94627 14.5983C4.91488 14.5224 4.86885 14.4535 4.8108 14.3955C4.75275 14.3374 4.68383 14.2914 4.60798 14.26C4.53213 14.2286 4.45084 14.2125 4.36875 14.2125ZM21.6656 21.8415C21.5302 21.9795 21.4028 22.1228 21.2769 22.2677C21.1761 22.3839 21.0751 22.499 20.9805 22.6198C20.8622 22.7706 20.7534 22.927 20.6452 23.0843C20.5589 23.2093 20.4711 23.333 20.3913 23.462C20.2902 23.6256 20.2002 23.7947 20.1096 23.964C20.0391 24.096 19.9652 24.2257 19.9011 24.361C19.8171 24.5381 19.7461 24.7209 19.6736 24.9033C19.6197 25.0385 19.5611 25.1711 19.5134 25.3089C19.4465 25.5033 19.3947 25.703 19.3406 25.9023C19.3047 26.0346 19.2618 26.1644 19.2317 26.2987C19.1813 26.5233 19.1486 26.7528 19.1146 26.982C19.0977 27.0962 19.0721 27.2078 19.0594 27.323C19.0203 27.6723 19.0004 28.0235 19 28.375C19.0019 28.6943 19.0201 29.0132 19.0544 29.3306C19.0633 29.4177 19.0744 29.5043 19.0857 29.5912C19.12 29.8543 19.1652 30.1156 19.2213 30.3749C19.2307 30.4183 19.2338 30.463 19.2441 30.5061H18.375V21.2875H22.2446C22.1584 21.3615 22.0832 21.4446 22.0002 21.5213C21.8864 21.6265 21.7735 21.7317 21.6656 21.8415ZM13.1375 30.5063V21.2875H17.125V30.5063H13.1375ZM3.24375 34V31.7563H17.7379C17.7422 31.7563 17.7457 31.7587 17.75 31.7587C17.7543 31.7587 17.7578 31.7563 17.7621 31.7563H19.6292C19.708 31.9591 19.7939 32.1589 19.8869 32.3558C19.8912 32.3651 19.8964 32.3739 19.9008 32.3831C20.0433 32.6799 20.2012 32.969 20.3741 33.2493C20.4018 33.2947 20.4277 33.3408 20.4562 33.3858C20.5893 33.5954 20.7281 33.8013 20.8774 33.9999L3.24375 34ZM28.375 36.5C27.3078 36.5008 26.2509 36.2912 25.2647 35.8832C24.2786 35.4752 23.3826 34.8767 22.6279 34.1221C21.8733 33.3675 21.2748 32.4714 20.8668 31.4853C20.4588 30.4991 20.2492 29.4422 20.25 28.375C20.2499 28.0625 20.2675 27.7502 20.3027 27.4396C20.5364 25.4615 21.4868 23.6375 22.9743 22.3127C24.4617 20.9879 26.3831 20.254 28.375 20.25C28.5931 20.25 28.8103 20.2586 29.0267 20.2759C31.1191 20.4433 33.0655 21.414 34.4581 22.9845C35.8507 24.5551 36.5815 26.6037 36.4972 28.7011C36.413 30.7985 35.5203 32.7819 34.0062 34.2357C32.4921 35.6896 30.4741 36.501 28.375 36.5Z" fill="#DEC377"/>
<path d="M29.1086 27.9948H27.8861C27.533 27.9948 27.1943 27.8545 26.9446 27.6048C26.6949 27.3551 26.5546 27.0164 26.5546 26.6633C26.5546 26.3102 26.6949 25.9715 26.9446 25.7218C27.1943 25.4721 27.533 25.3318 27.8861 25.3318H30.3318C30.4975 25.3318 30.6565 25.266 30.7737 25.1488C30.8909 25.0315 30.9568 24.8726 30.9568 24.7068C30.9568 24.5411 30.8909 24.3821 30.7737 24.2649C30.6565 24.1477 30.4975 24.0818 30.3318 24.0818H29V22.75C29 22.5842 28.9341 22.4253 28.8169 22.3081C28.6997 22.1908 28.5407 22.125 28.375 22.125C28.2092 22.125 28.0502 22.1908 27.933 22.3081C27.8158 22.4253 27.75 22.5842 27.75 22.75V24.0956C27.0784 24.1296 26.4467 24.4249 25.9899 24.9184C25.5331 25.4119 25.2873 26.0644 25.3051 26.7366C25.3229 27.4088 25.6028 28.0474 26.085 28.5161C26.5673 28.9847 27.2136 29.2462 27.8861 29.2448H29.1086C29.252 29.2437 29.3942 29.271 29.527 29.3251C29.6598 29.3792 29.7806 29.4591 29.8824 29.5601C29.9842 29.6611 30.0649 29.7813 30.1201 29.9137C30.1752 30.0461 30.2036 30.1881 30.2036 30.3315C30.2036 30.4749 30.1752 30.6169 30.1201 30.7493C30.0649 30.8816 29.9842 31.0018 29.8824 31.1028C29.7806 31.2038 29.6598 31.2837 29.527 31.3378C29.3942 31.392 29.252 31.4193 29.1086 31.4182H26.4182C26.2524 31.4182 26.0934 31.484 25.9762 31.6012C25.859 31.7185 25.7932 31.8774 25.7932 32.0432C25.7932 32.2089 25.859 32.3679 25.9762 32.4851C26.0934 32.6023 26.2524 32.6682 26.4182 32.6682H27.75V34C27.75 34.1658 27.8158 34.3247 27.933 34.4419C28.0502 34.5592 28.2092 34.625 28.375 34.625C28.5407 34.625 28.6997 34.5592 28.8169 34.4419C28.9341 34.3247 29 34.1658 29 34V32.6682H29.1086C29.4165 32.6698 29.7216 32.6105 30.0065 32.4938C30.2914 32.3771 30.5505 32.2052 30.7687 31.9881C30.987 31.7709 31.1602 31.5128 31.2784 31.2285C31.3966 30.9442 31.4574 30.6394 31.4574 30.3315C31.4574 30.0236 31.3966 29.7187 31.2784 29.4344C31.1602 29.1501 30.987 28.892 30.7687 28.6749C30.5505 28.4577 30.2914 28.2859 30.0065 28.1691C29.7216 28.0524 29.4165 27.9932 29.1086 27.9948Z" fill="#DEC377"/>
</svg>
