<svg width="40" height="36" viewBox="0 0 40 36" fill="none" xmlns="http://www.w3.org/2000/svg">
<path d="M35.3333 25.3793V17.3333H20.6667V10.6207C23.2933 10.2907 25.3333 8.048 25.3333 5.33333C25.3333 2.39267 22.9407 0 20 0C17.0593 0 14.6667 2.39267 14.6667 5.33333C14.6667 8.048 16.7067 10.2907 19.3333 10.6207V17.3333H4.66667V25.3793C2.04 25.7093 0 27.952 0 30.6667C0 33.6073 2.39267 36 5.33333 36C8.274 36 10.6667 33.6073 10.6667 30.6667C10.6667 27.952 8.62667 25.7093 6 25.3793V18.6667H19.3333V25.3793C16.7067 25.7093 14.6667 27.952 14.6667 30.6667C14.6667 33.6073 17.0593 36 20 36C22.9407 36 25.3333 33.6073 25.3333 30.6667C25.3333 27.952 23.2933 25.7093 20.6667 25.3793V18.6667H34V25.3793C31.3733 25.7093 29.3333 27.952 29.3333 30.6667C29.3333 33.6073 31.726 36 34.6667 36C37.6073 36 40 33.6073 40 30.6667C40 27.952 37.96 25.7093 35.3333 25.3793ZM16 5.33333C16 3.12733 17.794 1.33333 20 1.33333C22.206 1.33333 24 3.12733 24 5.33333C24 7.53933 22.206 9.33333 20 9.33333C17.794 9.33333 16 7.53933 16 5.33333ZM9.33333 30.6667C9.33333 32.8727 7.53933 34.6667 5.33333 34.6667C3.12733 34.6667 1.33333 32.8727 1.33333 30.6667C1.33333 28.4607 3.12733 26.6667 5.33333 26.6667C7.53933 26.6667 9.33333 28.4607 9.33333 30.6667ZM24 30.6667C24 32.8727 22.206 34.6667 20 34.6667C17.794 34.6667 16 32.8727 16 30.6667C16 28.4607 17.794 26.6667 20 26.6667C22.206 26.6667 24 28.4607 24 30.6667ZM34.6667 34.6667C32.4607 34.6667 30.6667 32.8727 30.6667 30.6667C30.6667 28.4607 32.4607 26.6667 34.6667 26.6667C36.8727 26.6667 38.6667 28.4607 38.6667 30.6667C38.6667 32.8727 36.8727 34.6667 34.6667 34.6667Z" fill="#DEC377"/>
</svg>
