<svg width="37" height="40" viewBox="0 0 37 40" fill="none" xmlns="http://www.w3.org/2000/svg">
<path d="M34.41 25.9996H24.0003V21.9995H21.3336V17.838C21.3336 16.4127 21.9482 15.0739 22.9776 14.2553C24.899 12.7292 26.0004 10.4485 26.0004 7.99904C26.0004 5.72163 25.025 3.54556 23.325 2.02884C21.6262 0.512794 19.3415 -0.20923 17.0621 0.0527791C13.4933 0.458793 10.5545 3.33422 10.0745 6.88901C9.6945 9.7051 10.7792 12.4445 12.9766 14.2179C14.0346 15.0719 14.6667 16.4713 14.6667 17.96V21.9995H11.9999V25.9996H1.59023C0.713535 25.9996 -0.000488281 26.713 -0.000488281 27.5904V35.0766C-0.000488281 35.9533 0.712869 36.6673 1.59023 36.6673H2.06025C2.37892 38.5561 4.02165 40.0008 6.00038 40.0008H30.0012C31.9792 40.0008 33.622 38.5561 33.9413 36.6673H34.4113C35.288 36.6673 36.002 35.954 36.002 35.0766V27.5904C36.0007 26.7137 35.2873 25.9996 34.41 25.9996ZM13.814 13.1805C11.9826 11.7025 11.0785 9.41709 11.3966 7.06768C11.7966 4.10891 14.2433 1.71683 17.2141 1.37749C19.1468 1.16015 21.0015 1.74217 22.4376 3.02421C23.855 4.28825 24.6677 6.10165 24.6677 7.99971C24.6677 10.0404 23.7496 11.9398 22.1489 13.2119C20.7835 14.2973 20.0008 15.9833 20.0008 17.838V21.9995H16.0007V17.9607C16 16.0446 15.2033 14.3019 13.814 13.1805ZM13.3333 23.3329H14.6667H21.3336H22.6669V25.9996H13.3333V23.3329ZM30.0005 38.6667H5.99971C4.75967 38.6667 3.71364 37.816 3.41763 36.6667H32.5826C32.2866 37.816 31.2412 38.6667 30.0005 38.6667ZM34.6673 35.0766C34.6673 35.2186 34.552 35.334 34.41 35.334H34.0006H1.99958H1.59023C1.44823 35.334 1.33289 35.2186 1.33289 35.0766V27.5904C1.33289 27.4484 1.44823 27.333 1.59023 27.333H11.9999H24.0003H34.41C34.552 27.333 34.6673 27.4484 34.6673 27.5904V35.0766Z" fill="#DEC377"/>
</svg>
